<svg xmlns="http://www.w3.org/2000/svg" width="32" height="33" viewBox="0 0 32 33"><defs><clipPath id="3hosa"><path fill="#fff" d="M16 0c8.836 0 16 7.318 16 16.345S24.836 32.69 16 32.69c-8.837 0-16-7.318-16-16.345S7.163 0 16 0z"/></clipPath><clipPath id="3hosb"><path fill="#fff" d="M16 9c3.866 0 7 3.358 7 7.5 0 4.143-3.134 7.501-7 7.501s-7-3.358-7-7.5C9 12.357 12.134 9 16 9z"/></clipPath></defs><g><g><path fill="#f9f9f9" d="M16 0c8.836 0 16 7.318 16 16.345S24.836 32.69 16 32.69c-8.837 0-16-7.318-16-16.345S7.163 0 16 0z"/><path fill="none" stroke="#000" stroke-miterlimit="20" stroke-width="4" d="M16 0c8.836 0 16 7.318 16 16.345S24.836 32.69 16 32.69c-8.837 0-16-7.318-16-16.345S7.163 0 16 0z" clip-path="url(&quot;#3hosa&quot;)"/></g><g><path fill="#fb6470" d="M16 9c3.866 0 7 3.358 7 7.5 0 4.143-3.134 7.501-7 7.501s-7-3.358-7-7.5C9 12.357 12.134 9 16 9z"/><path fill="none" stroke="#000" stroke-miterlimit="20" stroke-width="4" d="M16 9c3.866 0 7 3.358 7 7.5 0 4.143-3.134 7.501-7 7.501s-7-3.358-7-7.5C9 12.357 12.134 9 16 9z" clip-path="url(&quot;#3hosb&quot;)"/></g></g></svg>