<svg xmlns="http://www.w3.org/2000/svg" width="32" height="32" viewBox="0 0 32 32"><g><g><path fill="#3e3e3e" d="M.433 21.175L30.425.184c.007-.005.016-.007.023-.012.025-.016.054-.026.08-.04.03-.016.06-.033.091-.045.04-.017.078-.03.119-.043.036-.01.071-.013.108-.02.024-.003.048-.01.073-.012.011 0 .023-.006.035-.007.045-.002.09.009.135.013.036.004.07.004.106.01a.707.707 0 0 1 .091.025c.034.01.063.025.096.038.04.017.083.027.121.05.006.003.01.009.017.013.004.002.009.002.013.005.014.009.02.022.033.032.019.013.035.027.052.04.016.013.036.017.05.031.008.007.011.018.02.025.034.034.064.072.094.11.02.027.04.054.058.083.019.03.04.058.056.089.01.02.013.043.021.063.014.036.027.072.037.109.006.019.015.036.02.056.007.035.006.07.01.105a.963.963 0 0 1 .004.107c0 .031.008.062.005.094l-2.991 29.991a.999.999 0 0 1-1.474.778l-11-6c-.025-.013-.04-.036-.062-.051l-3.615 5.709c-.032.052-.074.094-.114.138-.013.013-.022.029-.036.042a.972.972 0 0 1-.277.187l-.07.027c-.112.042-.227.07-.346.07h-.002a1.003 1.003 0 0 1-.438-.112c-.032-.015-.066-.023-.097-.043-.03-.02-.047-.05-.076-.073a.935.935 0 0 1-.327-.468.993.993 0 0 1-.04-.2c-.004-.035-.021-.066-.021-.104v-8h-10a1 1 0 0 1-.574-1.819zm12.574 6.371l10.9-17.215-10.9 12.05zm14.154 1.848l2.423-24.288L17.53 24.14zm-15.598-8.4L24.31 6.904 4.18 20.995z"/></g></g></svg>