<svg xmlns="http://www.w3.org/2000/svg" xmlns:xlink="http://www.w3.org/1999/xlink" preserveAspectRatio="xMidYMid"
  width="32" height="32" viewBox="0 0 32 32">
  <defs>
    <style>
      .cls-1 {
        fill: #3e3e3e;
        fill-rule: evenodd;
      }
    </style>
  </defs>
  <path
    d="M5.082,31.988 C4.134,31.988 3.241,31.619 2.570,30.951 L1.671,30.052 C-2.259,26.130 0.901,16.831 8.864,8.883 C14.348,3.410 20.700,0.012 25.444,0.012 C27.364,0.012 28.966,0.597 30.075,1.704 L30.974,2.601 C31.645,3.271 32.015,4.162 32.015,5.109 C32.015,6.057 31.645,6.947 30.973,7.616 L27.377,11.206 C26.036,12.546 23.694,12.544 22.353,11.206 L21.453,10.308 C21.164,10.019 20.793,9.879 20.319,9.879 C19.422,9.879 17.393,10.402 13.889,13.898 C9.775,18.004 9.334,20.490 10.292,21.448 L11.192,22.345 C12.577,23.729 12.576,25.978 11.192,27.359 L7.595,30.950 C6.924,31.619 6.031,31.988 5.082,31.988 ZM25.444,2.027 C21.281,2.027 15.333,5.277 10.292,10.308 C3.368,17.218 0.074,25.607 3.099,28.627 L3.997,29.524 C4.577,30.101 5.586,30.102 6.168,29.524 L9.764,25.934 C10.361,25.338 10.361,24.367 9.764,23.771 L8.864,22.873 C7.839,21.848 6.136,18.784 12.461,12.472 C15.526,9.414 18.170,7.863 20.319,7.863 C21.328,7.863 22.213,8.216 22.881,8.883 L23.780,9.781 C24.360,10.360 25.369,10.358 25.949,9.781 L29.546,6.190 C29.836,5.901 29.996,5.517 29.996,5.109 C29.996,4.701 29.836,4.316 29.546,4.027 L28.647,3.129 C27.915,2.398 26.837,2.027 25.444,2.027 Z"
    class="cls-1" />
</svg>