<svg xmlns="http://www.w3.org/2000/svg" width="32" height="32" viewBox="0 0 32 32"><g><g><path fill="#3e3e3e" d="M5.082 31.988c-.948 0-1.84-.369-2.512-1.037l-.899-.899c-3.93-3.922-.77-13.221 7.193-21.17C14.348 3.41 20.7.013 25.444.013c1.92 0 3.522.585 4.631 1.692l.899.897a3.518 3.518 0 0 1 1.041 2.508c0 .948-.37 1.838-1.042 2.507l-3.596 3.59c-1.341 1.34-3.683 1.338-5.024 0l-.9-.898c-.289-.289-.66-.429-1.134-.429-.897 0-2.926.523-6.43 4.019-4.114 4.106-4.555 6.592-3.597 7.55l.9.897a3.544 3.544 0 0 1 0 5.014l-3.597 3.59a3.537 3.537 0 0 1-2.513 1.04zm20.362-29.96c-4.163 0-10.111 3.25-15.152 8.28C3.368 17.218.074 25.608 3.1 28.627l.898.897c.58.577 1.59.578 2.171 0l3.596-3.59a1.53 1.53 0 0 0 0-2.163l-.9-.898c-1.025-1.025-2.728-4.089 3.597-10.4 3.065-3.059 5.71-4.61 7.858-4.61 1.009 0 1.895.353 2.562 1.02l.9.898c.58.58 1.588.577 2.168 0l3.597-3.59c.29-.29.45-.674.45-1.082 0-.408-.16-.793-.45-1.082l-.899-.898c-.732-.731-1.81-1.102-3.203-1.102z"/></g></g></svg>